<svg width="37" height="36" viewBox="0 0 37 36" fill="none" xmlns="http://www.w3.org/2000/svg">
<path d="M24.9679 18C24.9679 14.625 22.2679 11.925 18.8929 11.925C15.5179 11.925 12.8179 14.625 12.8179 18C12.8179 21.375 15.5179 24.075 18.8929 24.075C22.2679 24.075 24.9679 21.375 24.9679 18ZM28.1179 18C28.1179 23.175 24.0679 27.225 18.8929 27.225C13.7179 27.225 9.66785 23.175 9.66785 18C9.66785 12.825 13.7179 8.775 18.8929 8.775C24.0679 8.775 28.1179 12.825 28.1179 18ZM30.5929 8.325C30.5929 9.675 29.6929 10.575 28.3429 10.575C26.9929 10.575 26.0929 9.675 26.0929 8.325C26.0929 6.975 26.9929 6.075 28.3429 6.075C29.6929 6.075 30.5929 7.2 30.5929 8.325ZM18.8929 3.15C16.1929 3.15 10.5679 2.925 8.31785 3.825C6.74285 4.5 5.39285 5.85 4.94285 7.425C4.04285 9.675 4.26785 15.3 4.26785 18C4.26785 20.7 4.04285 26.325 4.94285 28.575C5.39285 30.15 6.74285 31.5 8.31785 31.95C10.5679 32.85 16.4179 32.625 18.8929 32.625C21.3679 32.625 27.2179 32.85 29.4679 31.95C31.0429 31.275 32.1679 30.15 32.8429 28.575C33.7429 26.1 33.5179 20.475 33.5179 18C33.5179 15.525 33.7429 9.675 32.8429 7.425C32.3929 5.85 31.0429 4.5 29.4679 4.05C27.2179 2.925 21.5929 3.15 18.8929 3.15ZM36.8929 18V25.425C36.8929 28.125 35.9929 30.825 33.9679 33.075C31.9429 35.1 29.2429 36 26.3179 36H11.4679C8.76785 36 6.06785 35.1 3.81785 33.075C2.01785 31.05 0.892853 28.35 0.892853 25.425V18V10.575C0.892853 7.65 2.01785 4.95 3.81785 2.925C6.06785 1.125 8.76785 0 11.4679 0H26.3179C29.0179 0 31.7179 0.9 33.9679 2.925C35.7679 4.95 36.8929 7.65 36.8929 10.575V18Z" fill="#6C6C6C"/>
</svg>
