<svg width="35" height="35" viewBox="0 0 35 35" fill="none" xmlns="http://www.w3.org/2000/svg">
<path d="M4.19367 8.38733C6.50976 8.38733 8.38733 6.50976 8.38733 4.19367C8.38733 1.87757 6.50976 0 4.19367 0C1.87757 0 0 1.87757 0 4.19367C0 6.50976 1.87757 8.38733 4.19367 8.38733Z" fill="#6C6C6C"/>
<path d="M12.3471 11.5652V34.8316H19.571V23.3259C19.571 20.2899 20.1422 17.3497 23.9065 17.3497C27.6191 17.3497 27.6651 20.8208 27.6651 23.5176V34.8336H34.8929V22.0743C34.8929 15.8068 33.5435 10.9902 26.218 10.9902C22.7009 10.9902 20.3434 12.9203 19.3794 14.7469H19.2816V11.5652H12.3471ZM0.574936 11.5652H7.81035V34.8316H0.574936V11.5652Z" fill="#6C6C6C"/>
</svg>
    