<svg width="47" height="37" viewBox="0 0 47 37" fill="none" xmlns="http://www.w3.org/2000/svg">
<path d="M46.8929 4.17991C45.16 4.95397 43.4271 5.41841 41.3792 5.72803C43.2696 4.48954 44.8449 2.78661 45.6326 0.619246C43.7422 1.70293 41.6942 2.47699 39.6463 2.94142C37.9134 1.08368 35.3929 0 32.7148 0C27.5161 0 23.1052 4.17992 23.1052 9.44351C23.1052 10.2176 23.2627 10.8368 23.4202 11.6109C15.5435 11.3013 8.4545 7.43096 3.72847 1.85774C2.9408 2.94142 2.4682 4.48954 2.4682 6.19247C2.4682 9.44351 4.20107 12.3849 6.72162 13.9331C5.14628 13.9331 3.72847 13.4686 2.4682 12.6946V12.8494C2.4682 17.3389 5.77641 21.2092 10.1874 21.9833C9.3997 22.1381 8.61203 22.2929 7.66683 22.2929C7.03669 22.2929 6.40655 22.2929 5.93395 22.1381C7.19422 25.8536 10.66 28.6402 14.9134 28.6402C11.6052 31.1172 7.50929 32.6653 3.09833 32.6653C2.31066 32.6653 1.52299 32.6653 0.892853 32.5105C4.67367 35.4519 9.71477 37 15.0709 37C32.5572 37 42.1668 22.7573 42.1668 10.3724V9.13389C44.0572 7.74059 45.6326 6.19247 46.8929 4.17991Z" fill="#6C6C6C"/>
</svg>
